<?xml version="1.0" standalone="no"?>
<!DOCTYPE svg PUBLIC "-//W3C//DTD SVG 20010904//EN"
 "http://www.w3.org/TR/2001/REC-SVG-20010904/DTD/svg10.dtd">
<svg version="1.0" xmlns="http://www.w3.org/2000/svg"
 width="512.000000pt" height="512.000000pt" viewBox="0 0 512.000000 512.000000"
 preserveAspectRatio="xMidYMid meet">
<metadata>
Created by potrace 1.14, written by Peter Selinger 2001-2017
</metadata>
<g transform="translate(0.000000,512.000000) scale(0.100000,-0.100000)"
fill="#000000" stroke="none">
<path d="M0 2560 l0 -2560 2560 0 2560 0 0 2560 0 2560 -2560 0 -2560 0 0
-2560z m1579 2100 c46 -6 89 -17 97 -24 7 -7 35 -16 63 -20 33 -4 51 -12 51
-20 0 -7 12 -16 28 -19 15 -3 38 -15 51 -26 13 -12 29 -21 35 -21 6 0 17 -9
24 -20 7 -11 19 -20 26 -20 8 0 18 -9 21 -20 3 -11 12 -20 20 -20 8 0 17 -9
20 -20 3 -11 13 -20 21 -20 8 0 18 -8 21 -17 4 -10 15 -24 25 -31 10 -7 18
-19 18 -26 0 -8 9 -16 20 -19 11 -3 20 -14 20 -24 0 -10 9 -26 20 -36 11 -9
23 -31 27 -47 3 -17 11 -30 18 -30 7 0 17 -25 24 -59 6 -33 16 -61 21 -63 13
-4 30 -157 30 -268 -1 -112 -16 -241 -30 -250 -5 -3 -14 -31 -20 -61 -6 -29
-14 -55 -19 -57 -5 -1 -24 -33 -42 -69 -35 -70 -38 -74 -115 -162 -104 -121
-222 -200 -374 -252 -85 -29 -110 -33 -235 -37 -118 -3 -154 -1 -230 17 -106
26 -228 82 -311 145 -73 55 -234 226 -234 249 0 5 -9 20 -20 34 -11 14 -20 34
-20 45 0 10 -6 21 -14 24 -18 7 -36 56 -36 95 0 18 -5 29 -14 29 -20 0 -30
133 -24 337 4 133 8 168 20 177 8 6 18 33 22 59 4 28 15 55 27 65 10 9 19 23
19 32 0 8 9 26 20 40 11 14 20 30 20 36 0 6 10 20 23 32 12 11 35 37 51 56 16
20 35 36 43 36 7 0 13 5 13 11 0 13 53 64 75 73 8 3 15 12 15 21 0 8 8 15 18
15 11 0 30 9 43 21 13 11 36 23 51 26 16 3 28 12 28 19 0 8 2 14 4 14 25 0
112 23 116 31 16 25 286 36 429 19z m2390 -2390 c46 -6 89 -17 97 -24 7 -7 35
-16 63 -20 33 -4 51 -12 51 -20 0 -7 13 -16 30 -19 16 -4 38 -16 47 -27 10
-11 23 -20 30 -20 7 0 30 -17 51 -38 22 -22 47 -42 56 -45 9 -4 16 -13 16 -21
0 -8 9 -18 20 -21 11 -3 20 -12 20 -20 0 -8 9 -17 20 -20 11 -3 20 -15 20 -25
0 -10 9 -22 20 -25 11 -3 20 -12 20 -19 0 -7 9 -24 21 -37 11 -13 23 -36 26
-51 3 -16 11 -28 18 -28 7 0 17 -25 24 -59 6 -33 16 -61 21 -63 13 -4 30 -157
30 -268 -1 -112 -16 -241 -30 -250 -7 -5 -30 -92 -30 -116 0 -2 -6 -4 -14 -4
-7 0 -16 -12 -19 -28 -3 -15 -15 -38 -26 -51 -12 -13 -21 -32 -21 -43 0 -10
-7 -18 -15 -18 -9 0 -18 -7 -21 -15 -9 -22 -60 -75 -73 -75 -6 0 -11 -6 -11
-13 0 -8 -16 -27 -36 -43 -20 -16 -46 -39 -59 -51 -12 -13 -26 -23 -31 -23 -5
0 -20 -9 -34 -20 -14 -11 -33 -20 -43 -20 -10 0 -20 -6 -23 -14 -6 -17 -56
-36 -92 -36 -14 0 -30 -7 -37 -16 -24 -34 -515 -32 -515 2 0 9 -12 14 -36 14
-38 0 -74 15 -87 36 -4 8 -16 14 -26 14 -10 0 -30 9 -44 20 -14 11 -33 20 -42
20 -9 0 -19 9 -22 19 -3 11 -16 22 -29 25 -13 4 -24 13 -24 21 0 8 -6 15 -14
15 -8 0 -18 9 -21 21 -4 11 -18 24 -31 29 -13 5 -24 15 -24 22 0 7 -9 19 -20
26 -11 7 -20 19 -20 27 0 8 -6 15 -14 15 -8 0 -18 10 -22 23 -4 12 -15 33 -25
46 -11 13 -19 31 -19 40 0 9 -9 24 -20 33 -12 11 -22 36 -26 68 -4 30 -12 50
-19 50 -19 0 -28 140 -23 337 4 133 8 168 20 177 8 6 18 33 22 59 4 28 15 55
27 65 10 9 19 23 19 32 0 8 9 26 20 40 11 14 20 30 20 36 0 6 10 20 23 32 12
11 35 37 51 56 16 20 35 36 43 36 7 0 13 5 13 11 0 14 50 63 73 72 9 3 17 13
17 22 0 8 8 15 18 15 11 0 30 9 43 21 13 11 36 23 51 26 16 3 28 12 28 19 0 8
2 14 4 14 25 0 112 23 116 31 16 25 286 36 429 19z"/>
</g>
</svg>
